<svg width="40" height="40" viewBox="0 0 40 40" fill="none" xmlns="http://www.w3.org/2000/svg">
<path d="M2 11.25C2 11.9404 1.55228 12.5 1 12.5C0.447715 12.5 0 11.9404 0 11.25V6.25C0 2.79822 2.23858 0 5 0H9C9.55228 0 10 0.559644 10 1.25C10 1.94036 9.55228 2.5 9 2.5H5C3.34315 2.5 2 4.17893 2 6.25V11.25ZM31 2.5C30.4477 2.5 30 1.94036 30 1.25C30 0.559644 30.4477 0 31 0H35C37.7614 0 40 2.79822 40 6.25V11.25C40 11.9404 39.5523 12.5 39 12.5C38.4477 12.5 38 11.9404 38 11.25V6.25C38 4.17893 36.6569 2.5 35 2.5H31ZM9 37.5C9.55228 37.5 10 38.0596 10 38.75C10 39.4404 9.55228 40 9 40H5C2.23858 40 0 37.2018 0 33.75V28.75C0 28.0596 0.447715 27.5 1 27.5C1.55228 27.5 2 28.0596 2 28.75V33.75C2 35.8211 3.34315 37.5 5 37.5H9ZM38 28.75C38 28.0596 38.4477 27.5 39 27.5C39.5523 27.5 40 28.0596 40 28.75V33.75C40 37.2018 37.7614 40 35 40H31C30.4477 40 30 39.4404 30 38.75C30 38.0596 30.4477 37.5 31 37.5H35C36.6569 37.5 38 35.8211 38 33.75V28.75ZM6 8.75C6 8.05964 6.44772 7.5 7 7.5C7.55228 7.5 8 8.05964 8 8.75V31.25C8 31.9404 7.55228 32.5 7 32.5C6.44772 32.5 6 31.9404 6 31.25V8.75ZM12 8.75C12 8.05964 12.4477 7.5 13 7.5C13.5523 7.5 14 8.05964 14 8.75V31.25C14 31.9404 13.5523 32.5 13 32.5C12.4477 32.5 12 31.9404 12 31.25V8.75ZM16 8.75C16 8.05964 16.4477 7.5 17 7.5C17.5523 7.5 18 8.05964 18 8.75V31.25C18 31.9404 17.5523 32.5 17 32.5C16.4477 32.5 16 31.9404 16 31.25V8.75ZM20 8.75C20 8.05964 20.4477 7.5 21 7.5C21.5523 7.5 22 8.05964 22 8.75V31.25C22 31.9404 21.5523 32.5 21 32.5C20.4477 32.5 20 31.9404 20 31.25V8.75ZM28 8.75C28 8.05964 28.4477 7.5 29 7.5C29.5523 7.5 30 8.05964 30 8.75V31.25C30 31.9404 29.5523 32.5 29 32.5C28.4477 32.5 28 31.9404 28 31.25V8.75ZM32 8.75C32 8.05964 32.4477 7.5 33 7.5C33.5523 7.5 34 8.05964 34 8.75V31.25C34 31.9404 33.5523 32.5 33 32.5C32.4477 32.5 32 31.9404 32 31.25V8.75Z" fill="white"/>
</svg>
